<?xml version="1.0" encoding="UTF-8" standalone="no"?>
<svg
   xmlns:dc="http://purl.org/dc/elements/1.1/"
   xmlns:cc="http://creativecommons.org/ns#"
   xmlns:rdf="http://www.w3.org/1999/02/22-rdf-syntax-ns#"
   xmlns:svg="http://www.w3.org/2000/svg"
   xmlns="http://www.w3.org/2000/svg"
   id="svg4141"
   viewBox="0, 0, 24, 24"
   height="24"
   width="24"
   y="0"
   x="0"
   version="1.1">
  <metadata
     id="metadata4153">
    <rdf:RDF>
      <cc:Work
         rdf:about="">
        <dc:format>image/svg+xml</dc:format>
        <dc:type
           rdf:resource="http://purl.org/dc/dcmitype/StillImage" />
        <dc:title></dc:title>
      </cc:Work>
    </rdf:RDF>
  </metadata>
  <defs
     id="defs4151" />
  <g
     id="Capa_1">
    <path
       id="path4147"
       fill="#000000"
       d="M22,5.72 L17.4,1.86 L16.11,3.39 L20.71,7.25 L22,5.72 z M7.88,3.39 L6.6,1.86 L2,5.71 L3.29,7.24 L7.88,3.39 z M12.5,8 L11,8 L11,14 L15.75,16.85 L16.5,15.62 L12.5,13.25 L12.5,8 z M12,4 C7.03,4 3,8.03 3,13 C3,17.97 7.02,22 12,22 C16.97,22 21,17.97 21,13 C21,8.03 16.97,4 12,4 z M12,20 C8.13,20 5,16.87 5,13 C5,9.13 8.13,6 12,6 C15.87,6 19,9.13 19,13 C19,16.87 15.87,20 12,20 z" />
  </g>
</svg>
