<?xml version="1.0" encoding="UTF-8" standalone="no"?>
<svg
   xmlns:dc="http://purl.org/dc/elements/1.1/"
   xmlns:cc="http://creativecommons.org/ns#"
   xmlns:rdf="http://www.w3.org/1999/02/22-rdf-syntax-ns#"
   xmlns:svg="http://www.w3.org/2000/svg"
   xmlns="http://www.w3.org/2000/svg"
   id="svg4141"
   viewBox="0, 0, 24, 24"
   height="24"
   width="24"
   y="0"
   x="0"
   version="1.1">
  <metadata
     id="metadata4153">
    <rdf:RDF>
      <cc:Work
         rdf:about="">
        <dc:format>image/svg+xml</dc:format>
        <dc:type
           rdf:resource="http://purl.org/dc/dcmitype/StillImage" />
        <dc:title></dc:title>
      </cc:Work>
    </rdf:RDF>
  </metadata>
  <defs
     id="defs4151" />
  <g
     id="Capa_1">
    <path
       id="path4147"
       fill="#000000"
       d="M9,11 L7,11 L7,13 L9,13 L9,11 z M13,11 L11,11 L11,13 L13,13 L13,11 z M17,11 L15,11 L15,13 L17,13 L17,11 z M19,4 L18,4 L18,2 L16,2 L16,4 L8,4 L8,2 L6,2 L6,4 L5,4 C3.89,4 3.01,4.9 3.01,6 L3,20 C3,21.1 3.89,22 5,22 L19,22 C20.1,22 21,21.1 21,20 L21,6 C21,4.9 20.1,4 19,4 z M19,20 L5,20 L5,9 L19,9 L19,20 z" />
  </g>
</svg>
