<?xml version="1.0" encoding="UTF-8"?>
<!DOCTYPE svg PUBLIC "-//W3C//DTD SVG 1.1//EN" "http://www.w3.org/Graphics/SVG/1.1/DTD/svg11.dtd">
<svg version="1.1" xmlns="http://www.w3.org/2000/svg" xmlns:xlink="http://www.w3.org/1999/xlink" x="0" y="0" width="24" height="24" viewBox="0, 0, 24, 24">
  <g id="Capa_1">
    <path d="M15.2,12 C15.2,13.767 13.767,15.2 12,15.2 C10.233,15.2 8.8,13.767 8.8,12 C8.8,10.233 10.233,8.8 12,8.8 C13.767,8.8 15.2,10.233 15.2,12 z" fill="#000000"/>
    <path d="M9,2 L7.17,4 L4,4 C2.9,4 2,4.9 2,6 L2,18 C2,19.1 2.9,20 4,20 L20,20 C21.1,20 22,19.1 22,18 L22,6 C22,4.9 21.1,4 20,4 L16.83,4 L15,2 L9,2 z M12,17 C9.24,17 7,14.76 7,12 C7,9.24 9.24,7 12,7 C14.76,7 17,9.24 17,12 C17,14.76 14.76,17 12,17 z" fill="#000000"/>
  </g>
</svg>
