<?xml version="1.0" encoding="UTF-8"?>
<!DOCTYPE svg PUBLIC "-//W3C//DTD SVG 1.1//EN" "http://www.w3.org/Graphics/SVG/1.1/DTD/svg11.dtd">
<svg version="1.1" xmlns="http://www.w3.org/2000/svg" xmlns:xlink="http://www.w3.org/1999/xlink" x="0" y="0" width="24" height="24" viewBox="0, 0, 24, 24">
  <g id="Capa_1">
    <path d="M15,11 L15,5 L12,2 L9,5 L9,7 L3,7 L3,21 L21,21 L21,11 L15,11 z M7,19 L5,19 L5,17 L7,17 L7,19 z M7,15 L5,15 L5,13 L7,13 L7,15 z M7,11 L5,11 L5,9 L7,9 L7,11 z M13,19 L11,19 L11,17 L13,17 L13,19 z M13,15 L11,15 L11,13 L13,13 L13,15 z M13,11 L11,11 L11,9 L13,9 L13,11 z M13,7 L11,7 L11,5 L13,5 L13,7 z M19,19 L17,19 L17,17 L19,17 L19,19 z M19,15 L17,15 L17,13 L19,13 L19,15 z" fill="#000000"/>
  </g>
</svg>
