<?xml version="1.0" encoding="UTF-8"?>
<!DOCTYPE svg PUBLIC "-//W3C//DTD SVG 1.1//EN" "http://www.w3.org/Graphics/SVG/1.1/DTD/svg11.dtd">
<svg version="1.1" xmlns="http://www.w3.org/2000/svg" xmlns:xlink="http://www.w3.org/1999/xlink" x="0" y="0" width="512" height="512" viewBox="0, 0, 512, 512">
  <g id="Capa_1">
    <path d="M452.716,313.794 C450.382,313.91 448.165,313.91 445.832,313.91 C408.147,313.91 372.679,299.21 346.078,272.492 C319.477,245.775 304.777,210.307 304.777,172.505 C304.777,151.038 309.56,130.27 318.544,111.37 C322.511,103.086 327.294,95.152 332.895,87.802 C323.094,88.852 313.527,90.952 304.427,93.752 C261.025,107.519 226.141,140.654 209.923,183.006 C209.573,183.939 209.223,184.756 208.873,185.689 C222.757,189.773 235.824,196.656 247.141,205.873 C262.309,218.24 273.859,234.458 280.743,252.658 C304.193,253.708 326.128,263.625 342.928,280.659 C360.662,298.627 370.346,322.544 370.346,347.628 C370.346,360.929 367.546,373.879 362.412,385.896 C363.346,385.78 364.279,385.78 365.329,385.663 C404.531,381.463 439.182,362.212 463.333,333.628 C469.633,326.278 475.233,318.227 479.9,309.71 C471.15,312.044 462.049,313.327 452.716,313.794 z" fill="#010101"/>
    <path d="M177.839,201.09 C127.32,201.09 86.485,242.158 86.485,292.676 C86.485,295.71 86.602,298.743 86.952,301.777 C56.151,304.577 32,331.528 32,363.146 C32,396.514 59.068,425.098 92.319,425.098 L276.309,425.098 C317.961,425.098 351.679,390.213 351.679,348.445 C351.679,306.677 317.961,272.259 276.309,272.259 C273.159,272.259 270.009,272.259 266.975,272.609 C257.758,231.774 221.357,201.09 177.839,201.09 L177.839,201.09 z" fill="#010101"/>
  </g>
</svg>
