<svg id="svg5872" xmlns:rdf="http://www.w3.org/1999/02/22-rdf-syntax-ns#" xmlns="http://www.w3.org/2000/svg" fill="#000000" height="24" width="24" version="1.1" xmlns:cc="http://creativecommons.org/ns#" xmlns:dc="http://purl.org/dc/elements/1.1/" viewBox="0 0 24 24">
 <metadata id="metadata5882">
  <rdf:RDF>
   <cc:Work rdf:about="">
    <dc:format>image/svg+xml</dc:format>
    <dc:type rdf:resource="http://purl.org/dc/dcmitype/StillImage"/>
    <dc:title/>
   </cc:Work>
  </rdf:RDF>
 </metadata>
 <path id="path5876" d="m21 3h-18c-1.1 0-2 0.9-2 2v12c0 1.1 0.9 2 2 2h5v2h8v-2h5c1.1 0 1.99-0.9 1.99-2l0.01-12c0-1.1-0.9-2-2-2zm0 14h-18v-12h18v12zm-2-9h-11v2h11v-2zm0 4h-11v2h11v-2zm-12-4h-2v2h2v-2zm0 4h-2v2h2v-2z"/>
</svg>
