<svg id="svg4141" xmlns:rdf="http://www.w3.org/1999/02/22-rdf-syntax-ns#" xmlns="http://www.w3.org/2000/svg" xml:space="preserve" viewBox="0 0 512 512" height="512px" width="512px" version="1.1" xmlns:cc="http://creativecommons.org/ns#" xmlns:dc="http://purl.org/dc/elements/1.1/"><metadata id="metadata4183"><rdf:RDF><cc:Work rdf:about=""><dc:format>image/svg+xml</dc:format><dc:type rdf:resource="http://purl.org/dc/dcmitype/StillImage"/><dc:title/></cc:Work></rdf:RDF></metadata><g id="wind_cooling_fan"><g id="g4144"><g id="g4146"><path id="path4148" d="m337.24 251.21c18.852-12.685 36.277-28.863 47.447-49.296 36.874-67.471-2.068-147.35-68.721-143.44-53.902 3.159-42.172 69.628-44.355 115.4 13.729 2.246 27.049 8.084 38.377 17.821 18.05 15.51 27.24 37.45 27.24 59.52z"/><path id="path4150" d="m199.42 200.06c2.642-3.072 5.521-5.807 8.503-8.367-20.833-7.024-43.437-10.861-65.69-7.682-76.113 10.878-116.76 89.914-73.717 140.95 35.755 42.379 83.479-10.609 122-35.58-15.58-27.9-13.12-63.68 8.91-89.32z"/><path id="path4152" d="m316.15 304.58c-25.012 26.84-64.828 32.412-95.852 14.814 0.469 23.736 4.871 48.367 16.859 69.627 37.792 66.963 126.19 76.119 158.1 17.471 26.89-49.41-42.21-74.65-79.11-101.91z"/><path id="path4154" d="m299.24 204.21c-25.928-22.278-65.01-19.319-87.295 6.61-22.272 25.926-19.321 65.012 6.608 87.289 25.928 22.279 65.011 19.328 87.296-6.604 22.27-25.94 19.32-65.02-6.61-87.3zm-22.85 61.98c-8.301 9.662-22.86 10.766-32.527 2.463s-10.763-22.861-2.459-32.524c8.3-9.66 22.859-10.766 32.525-2.463 9.66 8.3 10.77 22.86 2.47 32.52z"/></g><g id="g4156"><path id="path4158" d="m105.61 147.9l-8.809-6.267c15.16-21.31 33.966-39.371 55.896-53.683 22.223-14.503 46.63-24.477 72.544-29.642l2.113 10.601c-49.25 9.826-92.48 37.874-121.74 78.994z"/><path id="path4160" d="m137.36 163.5l-8.346-6.871c26.323-31.973 61.115-55.141 100.61-66.997l3.108 10.354c-37.44 11.243-70.42 33.203-95.37 63.513z"/></g><g id="g4162"><path id="path4164" d="m226.23 458.78c-25.751-4.561-50.132-13.805-72.462-27.479-22.631-13.857-42.106-31.631-57.885-52.83l8.672-6.453c29.989 40.289 73.87 67.318 123.56 76.119l-1.89 10.64z"/><path id="path4166" d="m225.97 423.25c-40.172-10.072-76.019-31.568-103.67-62.168l8.021-7.246c26.206 29.004 60.188 49.381 98.273 58.928l-2.62 10.49z"/></g><g id="g4168"><path id="path4170" d="m442.32 343.14l-9.782-4.602c21.378-45.445 24.517-96.89 8.837-144.86l10.275-3.358c8.126 24.858 11.474 50.717 9.949 76.856-1.55 26.49-8.04 52.04-19.29 75.96z"/><path id="path4172" d="m414.53 328.04l-10.174-3.652c13.213-36.789 15.153-76.364 5.608-114.45l10.487-2.63c10.06 40.17 8.01 81.92-5.93 120.73z"/></g><g id="g4174"><path id="path4176" d="m256 0.002c-141.38 0-256 114.62-256 256s114.62 256 256 256 256-114.62 256-256-114.62-256-256-256zm0 488.84c-128.59 0-232.83-104.24-232.83-232.84 0-128.59 104.24-232.84 232.83-232.84s232.84 104.24 232.84 232.84c-0.01 128.59-104.25 232.84-232.84 232.84z"/></g></g></g></svg>
