<?xml version="1.0" encoding="UTF-8"?>
<!DOCTYPE svg PUBLIC "-//W3C//DTD SVG 1.1//EN" "http://www.w3.org/Graphics/SVG/1.1/DTD/svg11.dtd">
<svg version="1.1" xmlns="http://www.w3.org/2000/svg" xmlns:xlink="http://www.w3.org/1999/xlink" x="0" y="0" width="24" height="24" viewBox="0, 0, 24, 24">
  <g id="Capa_1">
    <path d="M20.57,14.86 L22,13.43 L20.57,12 L17,15.57 L8.43,7 L12,3.43 L10.57,2 L9.14,3.43 L7.71,2 L5.57,4.14 L4.14,2.71 L2.71,4.14 L4.14,5.57 L2,7.71 L3.43,9.14 L2,10.57 L3.43,12 L7,8.43 L15.57,17 L12,20.57 L13.43,22 L14.86,20.57 L16.29,22 L18.43,19.86 L19.86,21.29 L21.29,19.86 L19.86,18.43 L22,16.29 z" fill="#000000"/>
  </g>
</svg>
