<?xml version="1.0" encoding="UTF-8" standalone="no"?>
<svg
   xmlns:dc="http://purl.org/dc/elements/1.1/"
   xmlns:cc="http://creativecommons.org/ns#"
   xmlns:rdf="http://www.w3.org/1999/02/22-rdf-syntax-ns#"
   xmlns:svg="http://www.w3.org/2000/svg"
   xmlns="http://www.w3.org/2000/svg"
   id="svg5328"
   viewBox="0, 0, 24, 24"
   height="24"
   width="24"
   y="0"
   x="0"
   version="1.1">
  <metadata
     id="metadata5340">
    <rdf:RDF>
      <cc:Work
         rdf:about="">
        <dc:format>image/svg+xml</dc:format>
        <dc:type
           rdf:resource="http://purl.org/dc/dcmitype/StillImage" />
        <dc:title></dc:title>
      </cc:Work>
    </rdf:RDF>
  </metadata>
  <defs
     id="defs5338" />
  <g
     id="Capa_1">
    <path
       id="path5334"
       fill="#000000"
       d="M13,3 C8.03,3 4,7.03 4,12 L1,12 L4.89,15.89 L4.96,16.03 L9,12 L6,12 C6,8.13 9.13,5 13,5 C16.87,5 20,8.13 20,12 C20,15.87 16.87,19 13,19 C11.07,19 9.32,18.21 8.06,16.94 L6.64,18.36 C8.27,19.99 10.51,21 13,21 C17.97,21 22,16.97 22,12 C22,7.03 17.97,3 13,3 z M12,8 L12,13 L16.28,15.54 L17,14.33 L13.5,12.25 L13.5,8 L12,8 z" />
  </g>
</svg>
