<?xml version="1.0" encoding="UTF-8"?>
<!DOCTYPE svg PUBLIC "-//W3C//DTD SVG 1.1//EN" "http://www.w3.org/Graphics/SVG/1.1/DTD/svg11.dtd">
<svg version="1.1" xmlns="http://www.w3.org/2000/svg" xmlns:xlink="http://www.w3.org/1999/xlink" x="0" y="0" width="24" height="24" viewBox="0, 0, 24, 24">
  <g id="Capa_1">
    <path d="M9,21 C9,21.55 9.45,22 10,22 L14,22 C14.55,22 15,21.55 15,21 L15,20 L9,20 L9,21 z M12,2 C8.14,2 5,5.14 5,9 C5,11.38 6.19,13.47 8,14.74 L8,17 C8,17.55 8.45,18 9,18 L15,18 C15.55,18 16,17.55 16,17 L16,14.74 C17.81,13.47 19,11.38 19,9 C19,5.14 15.86,2 12,2 z" fill="#000000"/>
  </g>
</svg>
