<?xml version="1.0" encoding="UTF-8"?>
<!DOCTYPE svg PUBLIC "-//W3C//DTD SVG 1.1//EN" "http://www.w3.org/Graphics/SVG/1.1/DTD/svg11.dtd">
<svg version="1.1" xmlns="http://www.w3.org/2000/svg" xmlns:xlink="http://www.w3.org/1999/xlink" x="0" y="0" width="512" height="512" viewBox="0, 0, 512, 512">
  <g id="Capa_1">
    <path d="M425.444,370.794 C421.943,370.988 418.637,370.988 415.136,370.988 C358.541,370.988 305.252,349.011 265.188,308.947 C225.124,268.883 203.147,215.594 203.147,158.999 C203.147,126.714 210.343,95.597 223.763,67.396 C229.792,54.949 236.988,43.086 245.351,32 C230.57,33.556 216.372,36.668 202.564,40.946 C111.545,69.73 45.614,154.72 45.614,255.269 C45.614,379.351 146.163,479.9 270.245,479.9 C338.898,479.9 400.161,449.171 441.392,400.744 C450.727,389.659 459.285,377.601 466.286,364.765 C453.061,368.071 439.447,370.21 425.444,370.794 z" fill="#000000"/>
  </g>
</svg>
