<?xml version="1.0" encoding="UTF-8" standalone="no"?>
<svg
   xmlns:dc="http://purl.org/dc/elements/1.1/"
   xmlns:cc="http://creativecommons.org/ns#"
   xmlns:rdf="http://www.w3.org/1999/02/22-rdf-syntax-ns#"
   xmlns:svg="http://www.w3.org/2000/svg"
   xmlns="http://www.w3.org/2000/svg"
   version="1.1"
   id="svg11636"
   width="24"
   viewBox="0 0 24 24"
   height="24"
   fill="#000000">
  <metadata
     id="metadata11646">
    <rdf:RDF>
      <cc:Work
         rdf:about="">
        <dc:format>image/svg+xml</dc:format>
        <dc:type
           rdf:resource="http://purl.org/dc/dcmitype/StillImage" />
        <dc:title></dc:title>
      </cc:Work>
    </rdf:RDF>
  </metadata>
  <defs
     id="defs11644" />
  <path
     id="path11640"
     d="M12.01 5.5L10 8h4l-1.99-2.5zM18 10v4l2.5-1.99L18 10zM6 10l-2.5 2.01L6 14v-4zm8 6h-4l2.01 2.5L14 16zm7-13H3c-1.1 0-2 .9-2 2v14c0 1.1.9 2 2 2h18c1.1 0 2-.9 2-2V5c0-1.1-.9-2-2-2zm0 16.01H3V4.99h18v14.02z" />
</svg>
