<?xml version="1.0" encoding="UTF-8"?>
<!DOCTYPE svg PUBLIC "-//W3C//DTD SVG 1.1//EN" "http://www.w3.org/Graphics/SVG/1.1/DTD/svg11.dtd">
<svg version="1.1" xmlns="http://www.w3.org/2000/svg" xmlns:xlink="http://www.w3.org/1999/xlink" x="0" y="0" width="512" height="512" viewBox="0, 0, 512, 512">
  <g id="Capa_1">
    <g>
      <g>
        <g>
          <path d="M200,69.333 L218.667,69.333 L218.667,132.333 L200,132.333 z" fill="#010101"/>
          <path d="M32,237.333 L96.167,237.333 L96.167,256 L32,256 z" fill="#010101"/>
          <path d="M82.75,131.283 L95.583,118.333 L132.217,155.2 L119.383,168.15 z" fill="#010101"/>
          <path d="M292.633,166.983 L279.8,154.033 L316.317,117.167 L329.267,130.117 z" fill="#010101"/>
          <path d="M97.917,368.583 L85.083,355.633 L121.717,318.767 L134.55,331.717 z" fill="#010101"/>
        </g>
        <path d="M306.167,218.667 C255.65,218.667 214.817,259.733 214.817,310.25 C214.817,313.283 214.933,316.317 215.283,319.35 C184.483,322.033 160.333,349.1 160.333,380.717 C160.333,414.083 187.4,442.667 220.65,442.667 L404.633,442.667 C446.283,442.667 480,407.783 480,366.017 C480,324.25 446.283,289.833 404.633,289.833 C401.483,289.833 398.333,289.833 395.3,290.183 C386.083,249.35 349.683,218.667 306.167,218.667 L306.167,218.667 z" fill="#010101"/>
      </g>
      <path d="M266.15,186.35 C251.1,169.667 229.517,159.167 205.483,159.167 C160.333,159.167 123.467,196.15 123.467,241.65 C123.467,273.617 141.667,301.383 168.15,315.033 C168.15,315.033 168.15,314.917 168.15,314.917 C168.15,314.917 168.267,315.033 168.267,315.033 C173.517,300.917 181.567,291.933 194.633,285.167 C194.867,285.05 195.1,284.933 195.45,284.7 C195.683,284.583 196.033,284.467 196.267,284.35 C196.033,281.667 195.917,278.867 195.917,276.183 C195.567,238.967 231.15,193.933 267.083,188.217 C267.2,188.1 267.433,188.1 267.55,187.983 C267.083,187.517 266.617,186.933 266.15,186.35 z" fill="#010101"/>
    </g>
  </g>
</svg>
