<?xml version="1.0" encoding="UTF-8"?>
<!DOCTYPE svg PUBLIC "-//W3C//DTD SVG 1.1//EN" "http://www.w3.org/Graphics/SVG/1.1/DTD/svg11.dtd">
<svg version="1.1" xmlns="http://www.w3.org/2000/svg" xmlns:xlink="http://www.w3.org/1999/xlink" x="0" y="0" width="24" height="24" viewBox="0, 0, 24, 24">
  <g id="Capa_1">
    <path d="M7,9.5 C7,10.881 5.881,12 4.5,12 C3.119,12 2,10.881 2,9.5 C2,8.119 3.119,7 4.5,7 C5.881,7 7,8.119 7,9.5 z" fill="#000000"/>
    <path d="M11.5,5.5 C11.5,6.881 10.381,8 9,8 C7.619,8 6.5,6.881 6.5,5.5 C6.5,4.119 7.619,3 9,3 C10.381,3 11.5,4.119 11.5,5.5 z" fill="#000000"/>
    <path d="M17.5,5.5 C17.5,6.881 16.381,8 15,8 C13.619,8 12.5,6.881 12.5,5.5 C12.5,4.119 13.619,3 15,3 C16.381,3 17.5,4.119 17.5,5.5 z" fill="#000000"/>
    <path d="M22,9.5 C22,10.881 20.881,12 19.5,12 C18.119,12 17,10.881 17,9.5 C17,8.119 18.119,7 19.5,7 C20.881,7 22,8.119 22,9.5 z" fill="#000000"/>
    <path d="M17.34,14.86 C16.47,13.84 15.74,12.97 14.86,11.95 C14.4,11.41 13.81,10.87 13.11,10.63 C13,10.59 12.89,10.56 12.78,10.54 C12.53,10.5 12.26,10.5 12,10.5 C11.74,10.5 11.47,10.5 11.21,10.55 C11.1,10.57 10.99,10.6 10.88,10.64 C10.18,10.88 9.6,11.42 9.13,11.96 C8.26,12.98 7.53,13.85 6.65,14.87 C5.34,16.18 3.73,17.63 4.03,19.66 C4.32,20.68 5.05,21.69 6.36,21.98 C7.09,22.13 9.42,21.54 11.9,21.54 L12.08,21.54 C14.56,21.54 16.89,22.12 17.62,21.98 C18.93,21.69 19.66,20.67 19.95,19.66 C20.26,17.62 18.65,16.17 17.34,14.86 z" fill="#000000"/>
  </g>
</svg>
