<?xml version="1.0" encoding="UTF-8"?>
<!DOCTYPE svg PUBLIC "-//W3C//DTD SVG 1.1//EN" "http://www.w3.org/Graphics/SVG/1.1/DTD/svg11.dtd">
<svg version="1.1" xmlns="http://www.w3.org/2000/svg" xmlns:xlink="http://www.w3.org/1999/xlink" x="0" y="0" width="512" height="512" viewBox="0, 0, 512, 512">
  <g id="Capa_1">
    <path d="M374.497,136.725 C370.139,136.725 365.627,136.57 361.425,137.192 C348.51,79.928 306.651,32 236.471,32 C157.266,32 108.404,91.132 108.404,162.09 C108.404,166.447 108.56,170.648 109.027,174.85 C65.923,178.74 32,223.555 32,267.904 C32,313.342 67.634,352.867 112.294,355.357 L74.17,408.886 C72.458,411.376 71.058,414.177 71.058,417.445 C71.058,424.603 76.815,430.361 83.973,430.361 C88.642,430.361 92.688,427.871 95.022,424.136 L143.261,355.979 L199.436,355.979 L127.7,458.37 C125.832,460.86 124.432,463.972 124.432,467.084 C124.432,474.242 130.189,480 137.347,480 C142.016,480 146.062,477.199 148.551,473.309 L230.402,355.824 L289.378,355.824 L250.631,409.353 C248.764,411.843 247.208,415.266 247.208,418.067 C247.208,425.225 252.965,430.983 260.123,430.983 C264.947,430.983 268.526,428.338 271.327,424.603 L320.5,355.668 L374.497,355.668 C374.652,355.668 374.963,355.512 375.119,355.512 L303.383,458.059 C301.36,460.704 299.804,463.661 299.804,467.084 C299.804,474.242 305.561,480 312.72,480 C317.699,480 321.278,476.888 324.235,472.998 L410.598,348.821 C451.056,333.416 480,293.113 480,247.364 C480.155,188.699 432.85,136.725 374.497,136.725 z" fill="#010101"/>
  </g>
</svg>
