<svg id="svg7577" xmlns:rdf="http://www.w3.org/1999/02/22-rdf-syntax-ns#" xmlns="http://www.w3.org/2000/svg" fill="#000000" height="24" width="24" version="1.1" xmlns:cc="http://creativecommons.org/ns#" xmlns:dc="http://purl.org/dc/elements/1.1/" viewBox="0 0 24 24">
 <metadata id="metadata7587">
  <rdf:RDF>
   <cc:Work rdf:about="">
    <dc:format>image/svg+xml</dc:format>
    <dc:type rdf:resource="http://purl.org/dc/dcmitype/StillImage"/>
    <dc:title/>
   </cc:Work>
  </rdf:RDF>
 </metadata>
 <path id="path7581" d="m15 9h-6c-0.55 0-1 0.45-1 1v12c0 0.55 0.45 1 1 1h6c0.55 0 1-0.45 1-1v-12c0-0.55-0.45-1-1-1zm-3 6c-1.1 0-2-0.9-2-2s0.9-2 2-2 2 0.9 2 2-0.9 2-2 2zm-4.95-8.95l1.41 1.41c0.91-0.9 2.16-1.46 3.54-1.46s2.63 0.56 3.54 1.46l1.41-1.41c-1.27-1.27-3.02-2.05-4.95-2.05s-3.68 0.78-4.95 2.05zm4.95-6.05c-3.04 0-5.79 1.23-7.78 3.22l1.41 1.41c1.63-1.62 3.88-2.63 6.37-2.63s4.74 1.01 6.36 2.64l1.41-1.41c-1.98-2-4.73-3.23-7.77-3.23z"/>
</svg>
