<svg id="svg8725" xmlns:rdf="http://www.w3.org/1999/02/22-rdf-syntax-ns#" xmlns="http://www.w3.org/2000/svg" fill="#000000" height="24" width="24" version="1.1" xmlns:cc="http://creativecommons.org/ns#" xmlns:dc="http://purl.org/dc/elements/1.1/" viewBox="0 0 24 24">
 <metadata id="metadata8735">
  <rdf:RDF>
   <cc:Work rdf:about="">
    <dc:format>image/svg+xml</dc:format>
    <dc:type rdf:resource="http://purl.org/dc/dcmitype/StillImage"/>
    <dc:title/>
   </cc:Work>
  </rdf:RDF>
 </metadata>
 <path id="path8729" d="m20 4h-16c-1.1 0-2 0.9-2 2v12c0 1.1 0.9 2 2 2h16c1.1 0 2-0.9 2-2v-12c0-1.1-0.9-2-2-2zm-12.24 12.24l-1.41 1.41c-1.57-1.55-2.35-3.6-2.35-5.65s0.78-4.1 2.34-5.66l1.41 1.41c-1.16 1.18-1.75 2.71-1.75 4.25s0.59 3.07 1.76 4.24zm4.24-0.24c-2.21 0-4-1.79-4-4s1.79-4 4-4 4 1.79 4 4-1.79 4-4 4zm5.66 1.66l-1.41-1.41c1.16-1.18 1.75-2.71 1.75-4.25s-0.59-3.07-1.76-4.24l1.41-1.41c1.57 1.55 2.35 3.6 2.35 5.65s-0.78 4.1-2.34 5.66zm-5.66-7.66c-1.1 0-2 0.9-2 2s0.9 2 2 2 2-0.9 2-2-0.9-2-2-2z"/>
</svg>
