<?xml version="1.0" encoding="UTF-8"?>
<!DOCTYPE svg PUBLIC "-//W3C//DTD SVG 1.1//EN" "http://www.w3.org/Graphics/SVG/1.1/DTD/svg11.dtd">
<svg version="1.1" xmlns="http://www.w3.org/2000/svg" xmlns:xlink="http://www.w3.org/1999/xlink" x="0" y="0" width="512" height="512" viewBox="0, 0, 512, 512">
  <g id="Capa_1">
    <g>
      <path d="M280.818,280.956 L305.636,206.502 L193.955,206.502 L170.688,330.592 L251.812,330.592 L206.364,479.5 L308.738,330.592 L342.863,280.956 z" fill="#010101"/>
      <path d="M173.325,181.684 L340.071,181.684 L315.253,256.138 L342.863,256.138 L390.017,256.138 L338.83,330.592 L368.302,330.592 C423.677,330.592 468.504,283.903 468.504,228.373 C468.504,172.842 423.677,126.774 368.302,126.774 C364.114,126.774 359.925,126.774 355.893,127.239 C343.639,72.95 295.243,32 237.386,32 C170.223,32 115.933,86.6 115.933,153.763 C115.933,157.796 116.088,161.829 116.554,165.862 C75.604,169.43 43.496,205.726 43.496,247.762 C43.496,292.124 79.482,330.437 123.689,330.437 L145.405,330.437" fill="#010101"/>
    </g>
  </g>
</svg>
